<svg width="614" height="413" viewBox="0 0 614 413" fill="none" xmlns="http://www.w3.org/2000/svg">
<path fill-rule="evenodd" clip-rule="evenodd" d="M240 41C209.624 41 185 65.6243 185 96V107H376C406.376 107 431 131.624 431 162V296C431 297.345 430.952 298.679 430.857 300H503C533.376 300 558 275.376 558 245V96C558 65.6243 533.376 41 503 41H240Z" fill="white"/>
<rect x="52" y="112" width="373" height="259" rx="55" fill="white"/>
<path d="M81.5 249L152.081 372H10.9189L81.5 249Z" fill="white"/>
<path d="M532.5 164L461.919 41L603.081 41L532.5 164Z" fill="white"/>
</svg>
