<svg width="462" height="401" viewBox="0 0 462 401" fill="none" xmlns="http://www.w3.org/2000/svg">
<path fill-rule="evenodd" clip-rule="evenodd" d="M423 0H35V400H423V0ZM398.75 25H59.25V375H398.75V25Z" fill="#085B11"/>
<path fill-rule="evenodd" clip-rule="evenodd" d="M0 140.712C0 67.0106 56.5164 6.48934 128.636 0V32.8334C78.8223 39.6249 40.3061 85.3347 40.3061 140.712C40.3061 200.773 85.6121 249.461 141.5 249.461C193.07 249.461 235.63 208.006 241.899 154.413H177.518V127.868H283V140.712V154.413H282.343C275.443 226.015 215.019 282 141.5 282C63.3517 282 0 218.743 0 140.712Z" fill="white"/>
<path fill-rule="evenodd" clip-rule="evenodd" d="M336.5 89L462 400.25H425.122L391.817 317.65H281.183L247.878 400.25H211L336.5 89ZM298.7 274.207L336.5 180.46L374.3 274.207H298.7Z" fill="white"/>
<rect x="128" width="100" height="33" fill="white"/>
</svg>
