<svg width="350" height="304" viewBox="0 0 350 304" fill="none" xmlns="http://www.w3.org/2000/svg">
<path fill-rule="evenodd" clip-rule="evenodd" d="M320.455 0H26.5151V303.03H320.455V0ZM302.083 18.9394H44.8864V284.091H302.083V18.9394Z" fill="#C4C4C4"/>
<path fill-rule="evenodd" clip-rule="evenodd" d="M0 106.6C0 50.7656 42.8154 4.9162 97.4517 0V24.8736C59.7139 30.0187 30.5349 64.6473 30.5349 106.6C30.5349 152.1 64.8576 188.986 107.197 188.986C146.265 188.986 178.507 157.58 183.256 116.979H134.484V96.8694H214.394V116.979H213.896C208.669 171.224 162.893 213.637 107.197 213.637C47.9937 213.637 0 165.715 0 106.6Z" fill="black"/>
<path fill-rule="evenodd" clip-rule="evenodd" d="M254.924 67.4243L350 303.22H322.062L296.831 240.644H213.017L187.786 303.22H159.848L254.924 67.4243ZM226.288 207.732L254.924 136.712L283.56 207.732H226.288Z" fill="black"/>
<rect x="96.9697" width="75.7576" height="25" fill="black"/>
</svg>
