<svg width="425" height="330" viewBox="0 0 425 330" fill="none" xmlns="http://www.w3.org/2000/svg">
<path fill-rule="evenodd" clip-rule="evenodd" d="M115.91 54.6284C116.11 24.4237 140.657 0 170.909 0H254.091C284.343 0 308.89 24.4238 309.09 54.6284H370C400.376 54.6284 425 79.2527 425 109.628V275C425 305.376 400.376 330 370 330H55C24.6243 330 0 305.376 0 275V109.628C0 79.2527 24.6243 54.6284 55 54.6284H115.91ZM273.494 54.6284H151.506C158.603 36.7762 176.036 24.1558 196.417 24.1558H228.583C248.964 24.1558 266.397 36.7762 273.494 54.6284Z" fill="white"/>
</svg>
