<svg width="100" height="105" viewBox="0 0 100 105" fill="none" xmlns="http://www.w3.org/2000/svg">
<g clip-path="url(#clip0)">
<path d="M0 49.9449C0 26.4006 0 14.6285 7.01723 7.31426C14.0345 0 25.3285 0 47.9167 0H52.0833C74.6715 0 85.9657 0 92.9827 7.31426C100 14.6285 100 26.4006 100 49.9449V54.2879C100 77.8322 100 89.6044 92.9827 96.9184C85.9657 104.233 74.6715 104.233 52.0833 104.233H47.9167C25.3285 104.233 14.0345 104.233 7.01723 96.9184C0 89.6044 0 77.8322 0 54.2879V49.9449Z" fill="#2787F5"/>
<path fill-rule="evenodd" clip-rule="evenodd" d="M27.0851 32.5728H19.7918C17.7079 32.5728 17.2913 33.5951 17.2913 34.7222C17.2913 36.7353 19.7638 46.7197 28.8041 59.925C34.8309 68.943 43.3223 73.8316 51.0491 73.8316C55.6851 73.8316 56.2588 72.7458 56.2588 70.8757V64.0597C56.2588 61.8882 56.6979 61.4548 58.1658 61.4548C59.2476 61.4548 61.1021 62.0185 65.4291 66.3666C70.3743 71.5197 71.1896 73.8316 73.9709 73.8316H81.2643C83.3483 73.8316 84.3901 72.7458 83.7891 70.6031C83.1314 68.4677 80.7704 65.3691 77.6374 61.6964C75.9374 59.6029 73.3876 57.3484 72.6149 56.2209C71.5333 54.7717 71.8423 54.1274 72.6149 52.8393C72.6149 52.8393 81.5007 39.795 82.4281 35.3667C82.8916 33.756 82.4281 32.5728 80.2224 32.5728H72.9291C71.0748 32.5728 70.2198 33.5951 69.7559 34.7222C69.7559 34.7222 66.0473 44.1429 60.7931 50.2626C59.0931 52.0339 58.3204 52.5976 57.3931 52.5976C56.9296 52.5976 56.2584 52.0339 56.2584 50.4237V35.3667C56.2584 33.4341 55.7204 32.5728 54.1748 32.5728H42.7138C41.5549 32.5728 40.8579 33.4695 40.8579 34.3197C40.8579 36.1516 43.4849 36.5743 43.7558 41.7273V52.9199C43.7558 55.3737 43.3304 55.8186 42.4033 55.8186C39.9308 55.8186 33.9164 46.3556 30.3493 35.5276C29.6504 33.4229 28.9491 32.5728 27.0851 32.5728Z" fill="white"/>
</g>
<defs>
<clipPath id="clip0">
<rect width="100" height="104.233" fill="white"/>
</clipPath>
</defs>
</svg>
